<svg width="36" height="36" viewBox="0 0 36 36" fill="none" xmlns="http://www.w3.org/2000/svg">
<path d="M27.2467 35.3653H8.11859C3.62981 35.3653 0 31.7262 0 27.2467V8.11859C0 3.62981 3.62981 0 8.11859 0H27.2467C31.7262 0 35.3653 3.62981 35.3653 8.11859V27.2467C35.3653 31.7262 31.7262 35.3653 27.2467 35.3653Z" fill="black"/>
<path d="M26.6282 10.3722L24.9934 8.73743L13.4944 20.2365C12.3214 18.3153 12.617 15.8123 14.2148 14.2145L14.5381 13.8912L12.9033 12.2564L12.58 12.5797C10.0863 15.0734 9.77224 19.0542 11.8319 21.899L8.73779 24.9931L10.3726 26.6279L21.8716 15.1289C23.0446 17.05 22.7491 19.553 21.1512 21.1508L20.8279 21.4741L22.4627 23.1089L22.786 22.7856C25.2798 20.2919 25.5938 16.3111 23.5341 13.4663L26.6282 10.3722Z" fill="white"/>
</svg>
