<svg width="109" height="17" viewBox="0 0 109 17" fill="none" xmlns="http://www.w3.org/2000/svg">
<path d="M8.95305 8.75199C8.27881 8.3456 7.31825 7.99462 6.11754 7.69907C5.12927 7.45893 4.35344 7.22802 3.8085 7.01559C3.28204 6.81239 2.9126 6.56302 2.69093 6.2767C2.4785 5.99961 2.3769 5.63017 2.3769 5.16836C2.3769 4.3371 2.67246 3.7737 3.28204 3.44119C3.91934 3.09022 4.85219 2.91473 6.05289 2.91473C6.71789 2.91473 7.37366 2.97015 7.99248 3.07175C8.61131 3.17335 9.19319 3.32113 9.72889 3.51508L9.95979 3.59821V1.59396L9.83972 1.55702C9.44256 1.41848 8.86992 1.28917 8.13103 1.1691C7.40137 1.04903 6.59782 0.984375 5.7481 0.984375C3.89163 0.984375 2.4785 1.36306 1.56412 2.10195C0.631263 2.85008 0.160217 3.88453 0.160217 5.16836C0.160217 6.26746 0.501956 7.16337 1.18543 7.81914C1.85044 8.46567 3.01419 8.99213 4.63976 9.38929C5.63726 9.62943 6.45005 9.86957 7.04116 10.1005C7.6138 10.3221 8.02943 10.59 8.26957 10.904C8.50971 11.2088 8.62978 11.6337 8.62978 12.1694C8.62978 13.0283 8.34346 13.6102 7.74311 13.9335C7.12429 14.2752 6.16373 14.4415 4.90761 14.4415C4.16872 14.4415 3.42982 14.3768 2.72787 14.2475C2.02592 14.1182 1.35168 13.9335 0.732861 13.7026L0.49272 13.6102V15.6329L0.603555 15.6791C1.7396 16.1409 3.23586 16.3718 5.06462 16.3718C6.9488 16.3718 8.39888 16.0024 9.35944 15.282C10.3385 14.5523 10.8372 13.4994 10.8372 12.1601C10.8372 11.4397 10.6894 10.7932 10.4124 10.2205C10.1353 9.66637 9.64576 9.16762 8.95305 8.75199Z" fill="white"/>
<path d="M10.9577 3.03473H15.8066V16.1501H18.0049V3.03473H22.8538V1.21521H10.9577V3.03473Z" fill="white"/>
<path d="M34.612 10.6546C34.612 11.9292 34.2518 12.8805 33.5498 13.4993C32.8387 14.1274 31.8227 14.4414 30.5296 14.4414C29.2181 14.4414 28.1929 14.1274 27.4817 13.4993C26.7797 12.8805 26.4195 11.9199 26.4195 10.6546V1.21521H24.2121V10.6361C24.2121 12.4926 24.757 13.9334 25.8469 14.9124C26.9275 15.8915 28.4977 16.381 30.5296 16.381C32.5431 16.381 34.1132 15.8822 35.1939 14.9124C36.2745 13.9334 36.8287 12.4926 36.8287 10.6361V1.21521H34.6212L34.612 10.6546Z" fill="white"/>
<path d="M48.0967 1.1691C47.404 1.04903 46.6189 0.984375 45.7692 0.984375C44.1159 0.984375 42.7398 1.31688 41.6868 1.97265C40.6339 2.62841 39.8488 3.57974 39.3501 4.78044C38.8606 5.9719 38.6112 7.39427 38.6112 8.99213C38.6112 10.4607 38.879 11.763 39.3963 12.8621C39.9227 13.9704 40.7263 14.8386 41.7884 15.4574C42.8414 16.067 44.1898 16.3718 45.7877 16.3718C46.6374 16.3718 47.4225 16.3164 48.1152 16.2148C48.8079 16.1132 49.4637 15.9654 50.0548 15.7807L50.1749 15.7438V13.7118L49.9347 13.8042C49.3436 14.0258 48.6971 14.1921 48.0136 14.2937C47.3209 14.3953 46.6374 14.4507 45.9632 14.4507C44.1806 14.4507 42.8691 13.9797 42.047 13.0468C41.225 12.114 40.8094 10.747 40.8094 9.00137C40.8094 7.72678 40.9757 6.61844 41.2989 5.70406C41.6129 4.80815 42.1486 4.11543 42.8875 3.64439C43.6264 3.16411 44.6424 2.92397 45.917 2.92397C46.6559 2.92397 47.3671 2.98862 48.0413 3.11793C48.7063 3.24724 49.3436 3.42272 49.9347 3.64439L50.1749 3.73675V1.71403L50.0548 1.67709C49.4545 1.46466 48.7987 1.28917 48.0967 1.1691Z" fill="white"/>
<path d="M60.9252 10.5437C60.8144 10.3774 60.6666 10.2297 60.5004 10.0911C61.387 9.81404 62.0798 9.35223 62.56 8.69646C63.105 7.95757 63.3728 7.02472 63.3728 5.91638C63.3728 4.49401 62.9941 3.33949 62.2552 2.48976C61.5071 1.64003 60.3064 1.20593 58.6901 1.20593H52.1047V16.15H54.3121V10.6453H57.2215C57.8865 10.6453 58.3576 10.7377 58.607 10.9039C58.8563 11.0794 59.078 11.3842 59.2627 11.8091L61.1654 16.15H63.4467L61.4425 11.5135C61.2577 11.1163 61.0915 10.7838 60.9252 10.5437ZM54.3029 3.03469H58.413C60.2602 3.03469 61.1654 3.97678 61.1654 5.91638C61.1654 6.94159 60.8975 7.69896 60.3803 8.15153C59.8538 8.61334 59.1057 8.84424 58.1729 8.84424H54.3121L54.3029 3.03469Z" fill="white"/>
<path d="M75.5649 10.6546C75.5649 11.9292 75.2047 12.8805 74.5028 13.4993C73.7916 14.1274 72.7756 14.4414 71.4825 14.4414C70.171 14.4414 69.1458 14.1274 68.4346 13.4993C67.7327 12.8805 67.3725 11.9199 67.3725 10.6546V1.21521H65.165V10.6361C65.165 12.4926 65.7099 13.9334 66.7998 14.9124C67.8804 15.8915 69.4506 16.381 71.4825 16.381C73.496 16.381 75.0662 15.8822 76.1468 14.9124C77.2274 13.9334 77.7816 12.4926 77.7816 10.6361V1.21521H75.5742L75.5649 10.6546Z" fill="white"/>
<path d="M90.3144 10.6546C90.3144 11.9292 89.9542 12.8805 89.2523 13.4993C88.5411 14.1274 87.5251 14.4414 86.232 14.4414C84.9205 14.4414 83.8953 14.1274 83.1841 13.4993C82.4822 12.8805 82.122 11.9199 82.122 10.6546V1.21521H79.9145V10.6361C79.9145 12.4926 80.4594 13.9334 81.5493 14.9124C82.6299 15.8915 84.2001 16.381 86.232 16.381C88.2455 16.381 89.8157 15.8822 90.8963 14.9124C91.9769 13.9334 92.5311 12.4926 92.5311 10.6361V1.21521H90.3237L90.3144 10.6546Z" fill="white"/>
<path d="M106.718 1.21521L101.888 11.1164L97.0574 1.21521H94.7853V16.1501H96.9651V5.03898L101.121 13.5178L101.168 13.6101H102.636L106.811 5.03898V16.1501H109V1.21521H106.718Z" fill="white"/>
</svg>
